<svg xmlns="http://www.w3.org/2000/svg" viewBox="0 0 289.4 169.07"><defs><style>.cls-1{fill:#1d1d1b;}</style></defs><title>Asset 2</title><g id="Layer_2" data-name="Layer 2"><g id="Layer_1-2" data-name="Layer 1"><path class="cls-1" d="M9.62,169.05A9.76,9.76,0,0,1,6,168.36a9.22,9.22,0,0,1-3.08-2,9.63,9.63,0,0,1-2.12-3.18A10.66,10.66,0,0,1,0,159a11.24,11.24,0,0,1,.78-4.27,10,10,0,0,1,2.14-3.3,9.59,9.59,0,0,1,3.21-2.11,10.4,10.4,0,0,1,4-.75,10.33,10.33,0,0,1,2.83.36,11,11,0,0,1,2.42,1l.61-.94h1.2l.13,7H16.05a15.74,15.74,0,0,0-.72-2.22,8.38,8.38,0,0,0-1.12-2,5.17,5.17,0,0,0-1.7-1.47,4.56,4.56,0,0,0-2.25-.53,6.12,6.12,0,0,0-2.69.59,5.93,5.93,0,0,0-2.15,1.76,8.22,8.22,0,0,0-1.36,2.85,14,14,0,0,0-.49,3.86,11.15,11.15,0,0,0,.51,3.45A8.9,8.9,0,0,0,5.55,165a7.13,7.13,0,0,0,2.26,1.84,6.36,6.36,0,0,0,2.91.66,6.91,6.91,0,0,0,2.23-.35,6.28,6.28,0,0,0,1.76-.94A7.46,7.46,0,0,0,16,164.82a7.81,7.81,0,0,0,.92-1.68l1.12.49a8.62,8.62,0,0,1-3.4,4.17A9.67,9.67,0,0,1,9.62,169.05Z"/><path class="cls-1" d="M43.68,168.58h-8.8v-1a10.09,10.09,0,0,0,1.93-.28c.51-.13.77-.3.77-.51a1.89,1.89,0,0,0,0-.3,1.35,1.35,0,0,0-.09-.32l-1.76-4.4H28.27c-.28.65-.51,1.21-.68,1.69s-.33.92-.47,1.33a8.44,8.44,0,0,0-.27,1,3.31,3.31,0,0,0-.08.6c0,.37.32.66.94.86a8.45,8.45,0,0,0,2.12.36v1h-8v-1a6.66,6.66,0,0,0,1-.16,3.26,3.26,0,0,0,1-.35,3.75,3.75,0,0,0,.93-.78,5,5,0,0,0,.64-1.13c1.06-2.46,2.24-5.22,3.52-8.29l3.43-8.2h1.2l7.06,16.92a3.22,3.22,0,0,0,.51.87,3.38,3.38,0,0,0,.79.65,3.27,3.27,0,0,0,.89.32,4.9,4.9,0,0,0,.93.15Zm-8.52-8L32,153l-3.16,7.62Z"/><path class="cls-1" d="M64.88,153.88H63.76a7,7,0,0,0-1.31-2.34,3.24,3.24,0,0,0-1.9-1.37c-.31,0-.67-.06-1.1-.08s-.9,0-1.44,0H54.46v7.88H56.9a5.2,5.2,0,0,0,1.72-.22,2.7,2.7,0,0,0,1.05-.65,2.67,2.67,0,0,0,.54-.95,5.09,5.09,0,0,0,.33-1.37h1.11v7.71H60.54a6.35,6.35,0,0,0-.31-1.38,3.49,3.49,0,0,0-.56-1.12,2.26,2.26,0,0,0-1.13-.7,6.06,6.06,0,0,0-1.64-.19H54.46v6.75a1.74,1.74,0,0,0,.19.82,1.39,1.39,0,0,0,.69.57,4.82,4.82,0,0,0,1,.24,9.07,9.07,0,0,0,1.13.15v1H48.27v-1l1.19-.09a3.49,3.49,0,0,0,1-.16,1.25,1.25,0,0,0,.65-.53,1.75,1.75,0,0,0,.2-.85V151.82a1.86,1.86,0,0,0-.16-.81,1.19,1.19,0,0,0-.69-.57,5.25,5.25,0,0,0-1.08-.32,7.91,7.91,0,0,0-1.08-.17v-1H64.88Z"/><path class="cls-1" d="M88.57,162.8l-.4,5.78H70.58v-1q.45,0,1.2-.12a4.75,4.75,0,0,0,1-.18,1.31,1.31,0,0,0,.66-.54,1.67,1.67,0,0,0,.19-.85V151.82a2,2,0,0,0-.16-.81,1.19,1.19,0,0,0-.69-.57,5.25,5.25,0,0,0-1.08-.32,8,8,0,0,0-1.09-.17v-1H87v4.73H85.85a6.05,6.05,0,0,0-1.29-2.23,3.22,3.22,0,0,0-1.89-1.3c-.3,0-.67-.06-1.1-.08s-.91,0-1.46,0H76.78v7.8h2.39a5.29,5.29,0,0,0,1.68-.2,2.4,2.4,0,0,0,.93-.67,3.46,3.46,0,0,0,.56-1.07,6.68,6.68,0,0,0,.31-1.27h1.11v7.68H82.65a6,6,0,0,0-.33-1.4,3.39,3.39,0,0,0-.54-1.07,2.15,2.15,0,0,0-1-.7,6,6,0,0,0-1.56-.17H76.78v5.88a5.68,5.68,0,0,0,.13,1.39,1.27,1.27,0,0,0,.53.77,2.25,2.25,0,0,0,1.06.34,18,18,0,0,0,1.91.08H81.7a12.91,12.91,0,0,0,1.36-.06,7.17,7.17,0,0,0,1.17-.2,1.72,1.72,0,0,0,.86-.39,8.58,8.58,0,0,0,1.44-2,12.42,12.42,0,0,0,1-2Zm-6.25-17.37-2,.92-3.13,1.4-.46-.54c.91-.8,1.64-1.46,2.22-2s1.13-1,1.69-1.59a3.85,3.85,0,0,1,.87-.68,1.93,1.93,0,0,1,.85-.2,1.55,1.55,0,0,1,1,.32,1,1,0,0,1,.4.79,1.19,1.19,0,0,1-.39.94A4,4,0,0,1,82.32,145.43Z"/><path class="cls-1" d="M126.36,157.14a8.66,8.66,0,0,0-1.78.32,2.73,2.73,0,0,0-1.37.81,4.25,4.25,0,0,0-.64,1c-.21.44-.46.95-.76,1.54s-.6,1.17-.91,1.74a10.38,10.38,0,0,1-1.19,1.71,18.23,18.23,0,0,0,1.46,1.45,8.8,8.8,0,0,0,1.47,1.12,6.68,6.68,0,0,0,1.7.54,11.76,11.76,0,0,0,1.79.25v1H120l-2.22-2.35a14.8,14.8,0,0,1-1.13,1,8.32,8.32,0,0,1-1.33.92,8.61,8.61,0,0,1-1.56.65,6.39,6.39,0,0,1-1.85.24,8.26,8.26,0,0,1-2.19-.3,6.2,6.2,0,0,1-2-1,4.76,4.76,0,0,1-1.94-4,5.29,5.29,0,0,1,1-3.1,11.74,11.74,0,0,1,3.65-3,27.25,27.25,0,0,1-1.88-2.56,4.45,4.45,0,0,1-.67-2.42,3.78,3.78,0,0,1,.41-1.74,4.15,4.15,0,0,1,1.16-1.39,5.14,5.14,0,0,1,1.67-.85,6.83,6.83,0,0,1,2-.3,5.93,5.93,0,0,1,2.1.35,4.29,4.29,0,0,1,1.47.92,3.66,3.66,0,0,1,.79,1.22,3.58,3.58,0,0,1,.28,1.38,4,4,0,0,1-1.11,2.85,10.15,10.15,0,0,1-3.06,2.15c.94,1.17,1.85,2.24,2.75,3.2s1.75,1.91,2.58,2.84a16.09,16.09,0,0,0,1.54-2.78,6,6,0,0,0,.55-2.3c0-.3-.23-.53-.69-.7a11.89,11.89,0,0,0-1.92-.49v-1h8ZM117,165.43q-1.39-1.63-3.13-3.57t-2.78-3.28a4.45,4.45,0,0,0-1.71,1.81,5.52,5.52,0,0,0-.5,2.39,4.33,4.33,0,0,0,1.16,3.11,4,4,0,0,0,3.09,1.24,5.72,5.72,0,0,0,2.14-.43A4.38,4.38,0,0,0,117,165.43Zm-1.16-12.78a3.22,3.22,0,0,0-.67-2.17,2.44,2.44,0,0,0-1.91-.75,2.37,2.37,0,0,0-1.16.26,2.84,2.84,0,0,0-.79.67,2.44,2.44,0,0,0-.43.83,2.69,2.69,0,0,0-.14.78,4,4,0,0,0,.54,1.93,17,17,0,0,0,1.67,2.36,6.24,6.24,0,0,0,2.21-1.74A3.59,3.59,0,0,0,115.81,152.65Z"/><path class="cls-1" d="M168.71,168.58h-9.36v-1c.34,0,.78,0,1.31-.1a3.48,3.48,0,0,0,1.1-.23,2.13,2.13,0,0,0,.68-.6,1.6,1.6,0,0,0,.21-.85V151.55h-.22l-7.23,16.71h-.74l-6.88-17h-.2v11.7a11.15,11.15,0,0,0,.23,2.59,2.38,2.38,0,0,0,.71,1.27,3.39,3.39,0,0,0,1.36.55,8.7,8.7,0,0,0,1.34.28v1h-8.55v-1a12.67,12.67,0,0,0,1.41-.21,2.82,2.82,0,0,0,1.14-.45,2,2,0,0,0,.72-1.19,12.9,12.9,0,0,0,.19-2.68V153a3.81,3.81,0,0,0-.22-1.42,2.21,2.21,0,0,0-.64-.9,3,3,0,0,0-1.14-.55,6.14,6.14,0,0,0-1.32-.21v-1h7.22l6.06,14.72,5.18-12.31a12.48,12.48,0,0,0,.49-1.42,8.48,8.48,0,0,0,.22-1h6.9v1a9.13,9.13,0,0,0-1.07.12c-.43.08-.74.15-.94.21a1.08,1.08,0,0,0-.69.56,2,2,0,0,0-.18.84v14.14a1.67,1.67,0,0,0,.18.81,1.46,1.46,0,0,0,.69.58,3.35,3.35,0,0,0,1,.26,8.4,8.4,0,0,0,1.09.13Z"/><path class="cls-1" d="M192.67,151.29a9.57,9.57,0,0,1,2.2,3.27,11.16,11.16,0,0,1,.79,4.24,10.75,10.75,0,0,1-.81,4.24,9.45,9.45,0,0,1-2.24,3.25,9.81,9.81,0,0,1-3.22,2,10.65,10.65,0,0,1-3.91.72,10.48,10.48,0,0,1-4.08-.77,9.47,9.47,0,0,1-5.33-5.39,10.9,10.9,0,0,1-.77-4.09,10.66,10.66,0,0,1,.81-4.27,9.7,9.7,0,0,1,5.48-5.31,11,11,0,0,1,7.86,0A9.61,9.61,0,0,1,192.67,151.29Zm-2.22,13.91a8.91,8.91,0,0,0,1.22-2.85,16.49,16.49,0,0,0,0-7.26,8.66,8.66,0,0,0-1.25-2.87,5.57,5.57,0,0,0-2.06-1.83,5.91,5.91,0,0,0-2.83-.66,5.78,5.78,0,0,0-3,.76,6.18,6.18,0,0,0-2,2,9.12,9.12,0,0,0-1.11,2.85,16.4,16.4,0,0,0,0,7,8.94,8.94,0,0,0,1.22,2.85,5.58,5.58,0,0,0,5,2.58,6,6,0,0,0,2.88-.69A5.61,5.61,0,0,0,190.45,165.2Z"/><path class="cls-1" d="M219.54,154.29h-1a6.65,6.65,0,0,0-.48-1.18,10.32,10.32,0,0,0-.79-1.29,6.3,6.3,0,0,0-1-1.12,2,2,0,0,0-1-.54q-.47-.06-1.17-.09l-1.3,0h-.87v15.68a1.69,1.69,0,0,0,.21.84,1.38,1.38,0,0,0,.73.59,10.84,10.84,0,0,0,1.13.26,9.08,9.08,0,0,0,1.34.18v1h-10v-1l1.28-.11a5.17,5.17,0,0,0,1.19-.21,1.38,1.38,0,0,0,.72-.52,1.5,1.5,0,0,0,.23-.9V150.05h-.86l-1.15,0q-.69,0-1.32.09a2,2,0,0,0-1,.54,7.64,7.64,0,0,0-1,1.12,9.6,9.6,0,0,0-.79,1.32,6.48,6.48,0,0,0-.47,1.15h-1V149h18.46Z"/><path class="cls-1" d="M243,162.8l-.4,5.78H225.06v-1c.3,0,.69-.06,1.19-.12a4.75,4.75,0,0,0,1-.18,1.38,1.38,0,0,0,.67-.54,1.78,1.78,0,0,0,.18-.85V151.82a1.86,1.86,0,0,0-.16-.81,1.19,1.19,0,0,0-.69-.57,5.25,5.25,0,0,0-1.08-.32,7.91,7.91,0,0,0-1.08-.17v-1h16.39v4.73h-1.12a6.09,6.09,0,0,0-1.3-2.23,3.23,3.23,0,0,0-1.88-1.3c-.31,0-.68-.06-1.11-.08s-.91,0-1.46,0h-3.33v7.8h2.39a5.25,5.25,0,0,0,1.68-.2,2.4,2.4,0,0,0,.93-.67,3.46,3.46,0,0,0,.56-1.07,6.68,6.68,0,0,0,.31-1.27h1.12v7.68h-1.12a6,6,0,0,0-.32-1.4,3.59,3.59,0,0,0-.55-1.07,2.15,2.15,0,0,0-1.05-.7,6,6,0,0,0-1.56-.17h-2.39v5.88a5.16,5.16,0,0,0,.14,1.39,1.26,1.26,0,0,0,.52.77,2.29,2.29,0,0,0,1.06.34,18,18,0,0,0,1.91.08h1.3a13,13,0,0,0,1.36-.06,7.55,7.55,0,0,0,1.17-.2,1.68,1.68,0,0,0,.85-.39,8.58,8.58,0,0,0,1.44-2,12.42,12.42,0,0,0,1-2Z"/><path class="cls-1" d="M266.21,162.75l-.45,5.83H249.21v-1l1-.1a3.36,3.36,0,0,0,.95-.18,1.32,1.32,0,0,0,.65-.52,1.8,1.8,0,0,0,.2-.89v-14a2,2,0,0,0-.17-.83,1.33,1.33,0,0,0-.68-.58,5,5,0,0,0-1-.32,5.65,5.65,0,0,0-1-.19v-1h8.94v1a8,8,0,0,0-1.08.14,9.17,9.17,0,0,0-1,.22,1.1,1.1,0,0,0-.7.57,2,2,0,0,0-.18.85v13.18a8.56,8.56,0,0,0,.09,1.41,1.24,1.24,0,0,0,.46.78,2.11,2.11,0,0,0,1,.33,18.69,18.69,0,0,0,1.9.07l1.15,0c.4,0,.78-.06,1.14-.11a7.52,7.52,0,0,0,1-.23,1.59,1.59,0,0,0,.65-.37,12.17,12.17,0,0,0,1.43-1.93,13.63,13.63,0,0,0,1.12-2.09Z"/><path class="cls-1" d="M288.66,162.75l-.44,5.83H271.66v-1l1-.1a3.36,3.36,0,0,0,.95-.18,1.27,1.27,0,0,0,.65-.52,1.8,1.8,0,0,0,.2-.89v-14a2,2,0,0,0-.17-.83,1.29,1.29,0,0,0-.68-.58,5.07,5.07,0,0,0-1-.32,5.9,5.9,0,0,0-1-.19v-1h8.94v1a8.41,8.41,0,0,0-1.08.14,9.17,9.17,0,0,0-1,.22,1.06,1.06,0,0,0-.69.57,1.89,1.89,0,0,0-.19.85v13.18a7.43,7.43,0,0,0,.1,1.41,1.19,1.19,0,0,0,.45.78,2.11,2.11,0,0,0,1,.33,18.91,18.91,0,0,0,1.91.07l1.15,0c.39,0,.77-.06,1.13-.11a7.52,7.52,0,0,0,1-.23,1.52,1.52,0,0,0,.65-.37,11.58,11.58,0,0,0,1.43-1.93,13.86,13.86,0,0,0,1.13-2.09Z"/><path class="cls-1" d="M61.58,115.42H37.35V112.5l2.86-.24a8.54,8.54,0,0,0,2.57-.5,3.49,3.49,0,0,0,1.81-1.5,5.25,5.25,0,0,0,.58-2.61V86.88H17.73V107.2a5.46,5.46,0,0,0,.48,2.42,4,4,0,0,0,1.87,1.73,9.85,9.85,0,0,0,2.48.74,17.38,17.38,0,0,0,2.82.41v2.92H1.15V112.5L4,112.26a8.47,8.47,0,0,0,2.57-.5,3.45,3.45,0,0,0,1.81-1.5A5.15,5.15,0,0,0,9,107.65V65.53a5.49,5.49,0,0,0-.53-2.41,3.75,3.75,0,0,0-1.86-1.7,14.86,14.86,0,0,0-2.69-1A15.52,15.52,0,0,0,1.15,60V57.06H25.38V60a18.72,18.72,0,0,0-2.82.37,17.86,17.86,0,0,0-2.48.62,2.87,2.87,0,0,0-1.87,1.64,6.45,6.45,0,0,0-.48,2.51v18.1H45.17V65.53a5.36,5.36,0,0,0-.54-2.41,3.69,3.69,0,0,0-1.85-1.7,15.14,15.14,0,0,0-2.69-1A15.52,15.52,0,0,0,37.35,60V57.06H61.58V60a23.83,23.83,0,0,0-5.31,1,2.92,2.92,0,0,0-1.87,1.64,6.64,6.64,0,0,0-.47,2.51V107.2a5.61,5.61,0,0,0,.47,2.42,4.08,4.08,0,0,0,1.87,1.73,10.11,10.11,0,0,0,2.49.74,17.08,17.08,0,0,0,2.82.41Z"/><path class="cls-1" d="M128.83,60a22.83,22.83,0,0,0-3.37.49,10.33,10.33,0,0,0-3.62,1.36c-.93.63-1.58,1.93-1.93,3.91a41,41,0,0,0-.54,7.23V98.35a16.87,16.87,0,0,1-2,8.44,17.72,17.72,0,0,1-5.3,5.88,22.56,22.56,0,0,1-6.85,3.19,26.75,26.75,0,0,1-6.89,1,29.72,29.72,0,0,1-9.38-1.37A21,21,0,0,1,82,111.72a15.51,15.51,0,0,1-4.15-5.37,14.85,14.85,0,0,1-1.4-6.31V65.53A5.57,5.57,0,0,0,76,63.12a4.53,4.53,0,0,0-1.92-1.78,9.22,9.22,0,0,0-2.63-.93A20.38,20.38,0,0,0,68.82,60V57.06H93.13V60a20.28,20.28,0,0,0-2.9.37,19.4,19.4,0,0,0-2.57.61,3,3,0,0,0-1.88,1.65,6.62,6.62,0,0,0-.47,2.5V97.34a24.5,24.5,0,0,0,.52,4.91,12.9,12.9,0,0,0,2,4.79,12.14,12.14,0,0,0,4.36,3.7,16.52,16.52,0,0,0,7.57,1.44,17.78,17.78,0,0,0,7.59-1.44,12.68,12.68,0,0,0,4.83-3.78,14.11,14.11,0,0,0,2.39-4.65,17.78,17.78,0,0,0,.7-4.89V73.5a34.58,34.58,0,0,0-.66-7.46c-.44-1.93-1.08-3.2-1.93-3.8a10.9,10.9,0,0,0-3.93-1.6A24.09,24.09,0,0,0,105,60V57.06h23.86Z"/><path class="cls-1" d="M172.5,88.65a13.63,13.63,0,0,1,2.93,4.5,16,16,0,0,1,.94,5.7,15.79,15.79,0,0,1-6.12,12.75c-4.07,3.34-11,5-17,5a29.78,29.78,0,0,1-8.36-1.22,33.69,33.69,0,0,1-7.22-2.94l-1.89,3h-3.52l-.61-20h3.56a42.49,42.49,0,0,0,2.57,6.68,23,23,0,0,0,3.9,5.57A17.43,17.43,0,0,0,147,111.6,16.83,16.83,0,0,0,154.1,113a24.63,24.63,0,0,0,7.16-.74,9.23,9.23,0,0,0,3.67-2.1A8.43,8.43,0,0,0,167,107a12.17,12.17,0,0,0,.68-4.22,11.14,11.14,0,0,0-2.11-6.52,13,13,0,0,0-6.29-4.6q-2.87-1.06-6.55-2.35c-2.47-.86-4.59-1.68-6.38-2.44a20.6,20.6,0,0,1-8.21-5.82,14.42,14.42,0,0,1-2.92-9.39,13.51,13.51,0,0,1,1.45-6.21,16.37,16.37,0,0,1,4.13-5.15,19.15,19.15,0,0,1,6-3.35A30.94,30.94,0,0,1,156,55.74,24.49,24.49,0,0,1,163.69,57a38.45,38.45,0,0,1,6.23,2.87l1.8-2.79h3.52l.35,19.37H172c-.65-2.22-1.37-4.35-2.18-6.38a22.48,22.48,0,0,0-3.15-5.51,14.19,14.19,0,0,0-4.62-3.8,13.92,13.92,0,0,0-6.68-1.42c-3.54,0-7,.84-9,2.51A7.74,7.74,0,0,0,143.46,68a10,10,0,0,0,1.9,6.27,13.7,13.7,0,0,0,5.49,4.09q3.21,1.44,6.32,2.49t6,2.24a48.42,48.42,0,0,1,5.08,2.43A18.92,18.92,0,0,1,172.5,88.65Z"/><path class="cls-1" d="M234.27,98.23l-1.11,17.19H184.7V112.5c.82,0,1.92-.17,3.29-.35a11.13,11.13,0,0,0,2.68-.55A3.81,3.81,0,0,0,192.5,110a5.4,5.4,0,0,0,.51-2.5v-42a6.09,6.09,0,0,0-.45-2.41,3.52,3.52,0,0,0-1.89-1.7,14.09,14.09,0,0,0-3-1,22,22,0,0,0-3-.49V57.06h45.17V71.12h-3.09a19,19,0,0,0-3.56-6.64c-1.82-2.34-3.56-3.63-5.2-3.84-.85-.11-1.87-.2-3-.25s-2.53-.08-4-.08h-9.17v23.2h6.58a13.08,13.08,0,0,0,4.63-.6,6.33,6.33,0,0,0,2.57-2,10.47,10.47,0,0,0,1.54-3.18,19.94,19.94,0,0,0,.85-3.77H221V96.83h-3.08a18.37,18.37,0,0,0-.89-4.17,10.7,10.7,0,0,0-1.5-3.19,5.94,5.94,0,0,0-2.9-2.1,15.21,15.21,0,0,0-4.3-.49h-6.58v17.49a18.08,18.08,0,0,0,.37,4.15,3.89,3.89,0,0,0,1.44,2.3,6.17,6.17,0,0,0,2.92,1,47,47,0,0,0,5.27.22h3.58a35.78,35.78,0,0,0,3.74-.16,21.93,21.93,0,0,0,3.23-.6,4.94,4.94,0,0,0,2.36-1.17,26.14,26.14,0,0,0,4-6,39.07,39.07,0,0,0,2.65-5.9Z"/><path class="cls-1" d="M289,72.89h-2.84a19.33,19.33,0,0,0-1.34-3.51,31.85,31.85,0,0,0-2.16-3.85,20,20,0,0,0-2.7-3.31,5.31,5.31,0,0,0-2.83-1.62c-.85-.12-1.92-.2-3.21-.25s-2.49-.08-3.59-.08H267.9V107a5.31,5.31,0,0,0,.58,2.49,3.82,3.82,0,0,0,2,1.75,24.79,24.79,0,0,0,3.11.78,21.67,21.67,0,0,0,3.68.53v2.92H249.72V112.5c.77,0,1.94-.16,3.51-.32a14.07,14.07,0,0,0,3.27-.62,4,4,0,0,0,2-1.54,5.06,5.06,0,0,0,.64-2.7v-47h-2.39c-.85,0-1.9,0-3.17.06s-2.46.13-3.62.27a5,5,0,0,0-2.81,1.62,21.72,21.72,0,0,0-2.7,3.31,27.66,27.66,0,0,0-2.18,3.93A23,23,0,0,0,241,72.89h-2.88V57.06H289Z"/><polygon class="cls-1" points="289.4 40.91 177.69 40.91 177.69 22.6 146.03 6.01 114.38 22.6 114.38 40.91 1.17 40.91 1.17 35.59 109.05 35.59 109.05 19.38 146.03 0 183.02 19.38 183.02 35.59 289.4 35.59 289.4 40.91"/><rect class="cls-1" x="0.91" y="130.56" width="288.44" height="4.86"/></g></g></svg>