<svg data-name="Layer 1" xmlns="http://www.w3.org/2000/svg" viewBox="0 0 202.94 311.92">
  <path data-name="Path 1" d="M21.17 215.25c.1.1.31.21.42.32l-.1.1-.31-.42c-.1.1 0 .1 0 0-1 .31-2 1-1.87 1.14l1.87.83-1 1.35 1 1.14-1.14 2.91c-.42-.1-.1-1.45-1-.73v1l1.45.21a6.54 6.54 0 01-.62.93 1.77 1.77 0 010 2.39c1 .93-.42.42-.42 1a4.77 4.77 0 01.42 2.9 9 9 0 01-.63 3.33 16.7 16.7 0 00-1.14 5 6 6 0 01-.41 1.24 15.06 15.06 0 00-.52 2.08c-.1.73.31 1.56-.42 2.07.73.52.1 1.56.52 2.08.94 1.35.21 2.49-.31 3.63a6.34 6.34 0 00-.62 3.43c0 .1.21.21.21.21l.41-.42c.21 1.14 1.66 1.14 2 2.39l-2.18 1.14v2.28l1.56-1.14.21.31c.52.62 1.14-.83 1.66.1a.63.63 0 00.42-.1c.93-.62.51-1.66.51-2.07-.72-1.46-1.24-2.6-1.76-3.64.31-.93.52-1.66.83-2.49a1.1 1.1 0 011.32-.83c.1-.1.21-.31.31-.41l.1.1-.41.31-.1-.1v2.8l1.66 2.28h.83l.62 1.35.41.31-.41.1.83 1.14-.93.94a1.46 1.46 0 01.83 1.87 1.05 1.05 0 01-.42.51c-.1.21-.41.52-.52.42-.72-.31.21-.52.1-.73-.83-.52-.1-1.45-.52-2h-1.26a5.87 5.87 0 010 1.87 13.87 13.87 0 01-.83 2.08c.83.62 0 1.55.52 2.28h1.86l-.52-1 1.25-1.24.41.51c.1-.1.21-.31.32-.41l.1.1-.42.31-.1-.1v2.49c1 .52.1 1.14 0 1.87l.83.52a1.65 1.65 0 01.62-.31c.31.21.83.52.83.93a11.42 11.42 0 01-.41 2.08l.93.31v2.18c0 .72.42 1.24 0 1.87-.72 1.34-.41 2.9-.52 4.35l1.66.1.32.94 1.86-2-2-1.46.21-.31 2.18 1c1-1-.52-.83-.52-1.24l.31-.32c-.21-.51-1.24-.72-.73-1.66l1.15 1 1.24-.62-.62 3.22a2.13 2.13 0 01.83.1 4.61 4.61 0 012 1.14c.52.52.21 1.14.31 1.66 0 .1.21.21.31.31l1.25-.62.72-1.77c.83.63 1.56 1.25 2.39 1.87a.91.91 0 01.31.52 1.79 1.79 0 001.35 1.76l.21-.41 3.11.21c1.35.1 2.08 1.24 2.91 2.07h1.14c.1-.1.21-.31.31-.41l.1.1-.41.31-.1-.1a4 4 0 011.24 1c.31.52.42 1 1.14 1.24l.63-.41.93.93 3.22-.41.93.93.73-1h1.76c.42 0 .94-.41 1.14-.31 1 .93.32-.83.83-.62.73.1 1.87.1 2.18.52.73 1 1.25.93 2.29.52a2.94 2.94 0 011.66.1 7.6 7.6 0 003.73 0 10.68 10.68 0 013.12-.52c.72.1 2 .2 2.07 1.55 0 .21.31.42.63.63l.31-.94c2.59-.31 3.53 2 5.08 3.12h1.56l-.52-1 2.18.93c.73-.1 1.45-.52 1.66-.31.73.62 1.56.31 2.39.42 1.14.1 2.39-.32 3.42.41.1.1.42-.21.73-.41l.42.41-.32 2.08.63-.52 2.7 2.8-1.56 1.55 3.22 2.29c-1.25.52.41 1.24-.1 1.87l-1.25.41 2.7.83a1.92 1.92 0 00-.83 1.87c1.87.21 1.87.21 2.08 1.45l-.83-.41c0 .52-.21 1 0 1.35a4.44 4.44 0 01.41 2.59 3.84 3.84 0 00.73 2.8H194l1.14-1.45c1 .41 1.46 2 2.91 1.35v-1.58c.52.41.93.72 1.35 1v-.83l.21-.2.31.93-.63.1c.52 1.45 1.66.73 2.8.93-.1-1-.2-1.86-.31-2.8l1.14-1.14a2.77 2.77 0 00-1.45-2.9 2.23 2.23 0 00.21-2.39 7.68 7.68 0 01-.83-2.6c-.1-1-1-1.35-1-2.07 0-2.18-1.14-4-1.87-6.13-.1-.31-.41-.62-.41-.93a8.73 8.73 0 00-1-3.63 16.27 16.27 0 00-.93-1.87 7.55 7.55 0 01-.63-2 25.69 25.69 0 00-.62-3.12c-.73-2.59-.73-4.46.83-6.33a2.28 2.28 0 00.52-2.28 25.58 25.58 0 01-1.56-5.5 9 9 0 01.21-5c.52-1.14 1.45-2.39.52-3.74-.21-.31 0-.72 0-1.14 0-1.24-.1-2.39 0-3.63a4.05 4.05 0 00-1-3.22 12.85 12.85 0 01-.83-1.66c-.52-1.24-.72-2.59-1.24-3.84s-1.15-2.49-.1-3.94c.31-.42-.1-1.25-.21-1.87a2.64 2.64 0 001.66-1.66 7.94 7.94 0 01-1.15-.72c-.62-.42-1.24-.94-2-1.35-.73.62-1.25 0-1.76-.42s-1.15-1.14-1.77-1.76-1.24-1.35-2-2a4.18 4.18 0 00-1.14-.73l-.1-1.14c-1.87.41-3.32-.52-5-1.15.31-1.45-.63-2.49-1.25-3.52-.21-.42-.62-.63 0-.94-.93-1.24-.41-3-1.76-4.05 0-1.14-.94-2.28-.21-3.73l.62.72h2.28c-.41-.62.83-.93 0-1.66-.41-.31.21-1.35-.62-1.86l1-.83c-.42-1.15-.42-1.15-.1-2l-.83-.31c.93-.62.41-1.45.52-2.07l-1.25-.94h2.7l-1.24-1.14.83-1.35-1.35-2.07.62-1a2.83 2.83 0 01-2-3l-.41-.31c.1 0 .2-.1.31-.21s.2-.31.31-.42l.1.1-.42.31-.1-.1v.52h.94l.31-1.24-.94-1 .94-1a14.6 14.6 0 00-.42-2.07c-.21-.63-.62-1.15-.83-1.66a15.15 15.15 0 01-.41-1.77l1.14-.52-1.1-1.24c-.1-.83.1-2-.31-2.49a3.55 3.55 0 01-.73-2.49c0-.1-.1-.21-.21-.31l-.72-.1.41-.73-.93-1.87-.43-.31.42-.1c-.52-1.35-1.66-2.5-1.46-4.16.1-.41-.31-.93-.41-1.34-.1-.1-.31-.21-.42-.32l.1-.1.31.42-.1.1c.21 0 .42-.1.42 0 .52.41.93.93 1.56 1.45l-1.15.52c1.25.83.94 2.28 1.35 3.43l1.25.83a1.09 1.09 0 00-.21-.94 1.41 1.41 0 01-.62-1.35c.21-1.35-.42-2.59-.21-3.94l-1-.62a4.77 4.77 0 00.1-1.25 18.13 18.13 0 01-.83-3.32c-.1-.93.21-2.08-.41-2.8a5.34 5.34 0 01-.94-3.53 4.38 4.38 0 00-.41-2.8c-.83-1-.52-1.76.41-2.39v-1.86c0-.63.73-1.15 0-1.77a10.2 10.2 0 001-1.24l-.62-1c.41-.21.93-.42.93-.52 0-.62.52-1.14.42-1.56a1.4 1.4 0 01.1-1.45c-.83-1-.31-2.28-.42-3.42-.1-.83.21-1.67-.41-2.29.62-.72-.1-1.35-.31-2a2.37 2.37 0 010-2.08c.72-.93-.73-1.34-.32-2.07a9.12 9.12 0 01-1-.83c1.24-1 1.24-2.49 1-3.84a6.14 6.14 0 01-.41-1.45l.31-1.25a2.68 2.68 0 00-.31-1.24c.41 0 .41.62.83.31a14.74 14.74 0 01-.42-2.08c0-.62-.62-1.24 0-1.87a2.19 2.19 0 01-.41-2.07 3.61 3.61 0 00-.52-2.08 14.84 14.84 0 01-.93-4.36l1.24-.21c-.31-1.55-.72-3-.93-4.46-.1-.41.31-.62-.31-.93-.42-.21-.63-.83-.83-1.35-.1-.21.2-.42.31-.52l-1.14-3.32c0-.1-.1-.31 0-.42.2-.31.31-.62.51-.93l-1-.52v-.73c.1-.31.31-.62.41-.93a5.48 5.48 0 01-.93-3.11c-.1-.32-.1-.73-.21-1a51.11 51.11 0 00-1.66-5.71c-.94-.52.31-.93 0-1.45-.73-1.35-.42-3-1.35-4.26a1.56 1.56 0 01-.45-1.23c-.1-2.28-1-4.46-1.66-6.64-.2-.73-.41-.94-1.24-1.77-.21-.2-.21-.62-.31-.93-.1-.1-.31-.21-.42-.31l.1-.1.31.31-.1.1c.63-.1.63-.52.42-.83-.52-.62-1.14-1.14-1.77-1.76.42-.52.94-.94 1.67-.63l.62 1.77h2.07l1.67 1.35a2.6 2.6 0 00-.21-.83c-.42-.63-.83-1.25-1.35-2.08 1-.21 1-1.35 1.66-1.56l2.18.73-.73-2.28h.21l1.24-2.6a6 6 0 01-1.14-2.08 3.09 3.09 0 00-2.59-2.7l-.73.94a18.92 18.92 0 01-1.76-1.14c-.52-.42-.94-1-1.46-1.46a2.21 2.21 0 01-.93-1.86c-.83 0-.73-.94-1.14-1.15l1.14-2.18 2.7 3.64 1.45-1.46c-.2-.31-.83-.83-.83-1.24 0-.83-.72-1-.93-1.66l.83-.1c-1.14-.52-4.05-4.15-4.77-5.71l-1.25-.1.52-1.35-1.76-1.67c.41-1.25-1.25-1-1.35-1.87s-1.45-.52-1.35-1.46l.31-.72-1.87-2-.45.39c-1.25-1-2.49-2-3.63-3-.21-.21-.21-.63-.32-1-1.14-.62-1.45-1.87-2.28-2.7-.62-.62-1.45-1.14-1.35-2.08-1.14-1.14-1.14-1.14-.21-1.66.1.52.1.94.21 1.66.63-.83 1.35-.52 2.18 0a2.66 2.66 0 00-1-2.8c-.1-.1-.72.1-1.24.31l-1.56-1.76a3.63 3.63 0 01-2.7-.83 11.13 11.13 0 00-3.22-1.45c-1.24 1.14-1.66-.31-2.49-.73v-.52l1.66.31c-.72-1-1-1.86-2.17-1.86v1.34c-.21 0-.63.1-.63 0-.72-.93.42-.93.63-1.34-1.35-1.56-1.67-1.56-2.91-.94l-1.9-1.95-3.63.72-.93 1-1.35-.73a14.26 14.26 0 01-2.6-2.49 5.72 5.72 0 00-.83-.72 9.28 9.28 0 00-1-1c-.52-.52-.72-1.45-1.45-1.66a9.41 9.41 0 01-2.8-2.18c-.41-.42-.83-1-1.14-.94-1 .21-.94-.72-1.35-1a11.57 11.57 0 01-1.76-1.35 20 20 0 01-2-2.6h-1.86l1 1.46c-1.35.2-1.35.2-2 0-1.45-.52-2.8-1.25-4.25-1.87a10 10 0 00-3.43-.94 10.17 10.17 0 01-4.88-1c-1-.63-2.18-.21-3.22-.52A10.64 10.64 0 0083.71.7c-1.35.1-2.59-.52-3.94-.21a4.84 4.84 0 01-4.15-.31 2 2 0 00-1.56 0c-1.14.73-2.28.42-3.42.42-.94-.1-1.66.41-2.6.1a12.79 12.79 0 00-2.9-.1c-.42 0-1-.1-1.25.1-.62.62-1.35.1-1.87.31a2.2 2.2 0 01-2 0c-.31-.21-.83.1-1.24.1a3.77 3.77 0 01-1 .21 14.05 14.05 0 00-4.67.83 2.11 2.11 0 01-1.35-.42c-.62-.31-.93 1-1.56.31l-.41-.31-1 1.67c.52.52.83.93-.21 1.14l-.73-1.29-.83 1.34-.83-.51-1.25 1.24a8.13 8.13 0 00-1.56.21 34.71 34.71 0 00-5.4 3.94c-.93 1.35-3 1-3.63 2.7-1.56-.21-2.18 1.25-3.22 2a26.25 26.25 0 00-3.42 3.33v2.07l-2.28 1.68c.31 1.14-.94 1.46-1.25 2.18a15.31 15.31 0 00-.73 2.91l-2.49 2.8c-.2.72-.41 1.55-.62 2.49a6.17 6.17 0 01-.93 2.59l.93 1.87-1 1.35c.21.21.31.31.42.31s.41.1.62.21a4.12 4.12 0 01-.73 2.7 5.21 5.21 0 00-.62 1.76l-.93 4.67a6 6 0 00-.42 2.29 6.7 6.7 0 01-.83 4.46 43.7 43.7 0 01-.93 6.43c-.63 3.43.31 6.85-.63 10.17-.1.21.73.42.1.83a2 2 0 00-.1.83 2.59 2.59 0 01-.2.83 21 21 0 01-.31-3.63 3.64 3.64 0 00-1.15-2.7 9.73 9.73 0 00-.41 2.39 19.11 19.11 0 00-.21 2.39c0 .83-.41 1.55-.1 2.38a9.56 9.56 0 010 2.39c-.31-1.35-1.45-2.08-2.28-3.11v1.87l-.83-.73a7.11 7.11 0 00-.52 1.35c-.1 2 0 3.94 0 5.91a1.74 1.74 0 00.31 1 3.84 3.84 0 01.62 3 11.61 11.61 0 01-.1 2.7 3.07 3.07 0 000 1.35 9.73 9.73 0 001.45 3.74c.52.83.42 2.07.52 3.21.1.52 0 1.14.21 1.46.62.72-.42 1-.21 1.55.93 1 .93 1 .73 2.49l-.83-.41c.2.72.52 1.24.41 1.76-.21 1.25.83 2 .94 3 1.14.52.93 1.77 1.24 2.7a3.73 3.73 0 01.21 2.8 5.92 5.92 0 000 2l1.45.21a4.36 4.36 0 001 3.53c.31.31.21 1 .31 1.56a3.09 3.09 0 01-1.14.62c-.62-.83-.83.1-1.14.31 1.24.73-.1 1.56 0 2.39.52.1 1 .52 1.35.31.83-.62 1 .1 1.45.52l-1.56 1.14 1 1.14a10.84 10.84 0 00-.42 1.77c.1 2.18-.41 4.36.42 6.43v10.9a1.35 1.35 0 01-.21.62 4.94 4.94 0 00-.1 3.22c.1.21.31.52.21.62-.93 1-.1 2.29-.52 3.43a1.75 1.75 0 00-1.24 2c.1.94-.63 1.77 0 2.6a4.31 4.31 0 00-.42 2.8c0 .2-.21.41-.21.62-.21 1.45-.52 3-.83 4.67a5.57 5.57 0 002.18-2.91 16.62 16.62 0 011.45.94c.1.1.1.41.21.62l-.93.42.52.62-1.35 2.59a2 2 0 010 2.59 4.21 4.21 0 00-.63 2.7v2l-.83.31-.62 4.26 1.56 1.35-1.35.83a22.56 22.56 0 00-.52 2.7c0 .41.41.83.41 1.14a4.21 4.21 0 01-.41 1.24l1.35.21-.73 1.35h-1.35c.73.73.31 1.45.21 2.08a6.24 6.24 0 012.6 1.66c-.63 1.35-.32 2.59-.21 3.94a3.38 3.38 0 001.24-3.21c.73-1.46 1.46-2.8 2.08-4.36.31-1.25.62-2.6.83-3.95a2.19 2.19 0 00.72-.93c.21-.94.32-2 .52-3a2.66 2.66 0 01.42-.94 1.49 1.49 0 00.14-2.12v-.05l-.1-.1.93-.94c-.21-2.49.83-5.08.42-7.68v-1.76c.41-.63.62-.94.41-1.25-.31-.83.21-1.66 0-1.87-.52-.72.21-1.24.1-2-.1-.52.42-1 .73-1.55v2.38l.93.42c.31.93-.72.52-.83.93s0 1-.52 1.35c-.1.1-.1.21-.2.21h1c.52 1.14-.21 1.45-.62 1.87a11.7 11.7 0 01.31 4.25c0 1.35-.52 2.6-.42 3.95s-1 2.7-.1 4.25c1-.52.63-2.49 2.39-2.49a3 3 0 00-.41.93c.41 1.77-.63 3.22-1 4.88 0 .31-.31.52-.31.73l-.31 2.59c-1.15.42-.63 1.56-.94 2.39-.52 1.45-1.35 2.91-1.14 4.57l-.73 1.86c-.31.42-.51.83-.83 1.25a11.44 11.44 0 00-1.14 2.49c-.31 1.56-.41 3.22-.62 4.88l-1.14.72.41.52-.83.31v2l.63.62a13 13 0 00-.21 1.76c.1.1.31.21.41.31l-.1.1-.31-.41.1-.1c-1.24-.21-1.24 1-1.87 1.66l.52.62a5.51 5.51 0 00-1.24 3l-.94-1.14-1.14 1.14c.83.63-.41 1.25 0 1.87-.83.62-.21 1.56-.52 2.28l-.52.52a5.19 5.19 0 00-1.76 4.26 7.72 7.72 0 01-1.14 4.05 2.75 2.75 0 01-.31.52l.93 1.14-1.15 3.63-.83-2.08c-.72.31-.72.31-.21 1-.31.41-.52.83-.83 1.24s-.62.83-.83.83c-1.45.1-2 1-2.38 2.18a13.73 13.73 0 01-.94 1.56c.94.21 0 1.66 1.35 1.76l.21-2.07 1 .62c.41-.52 1.24-.83 1.14-1.66a6.72 6.72 0 01-.93-.83l1.76-1c.62 1-.83 1.14-.73 2a3 3 0 01.94-.1v2.18a3.76 3.76 0 01-.42 1.86 2 2 0 00.21 2 4.16 4.16 0 01.62 1.56 3.32 3.32 0 01-.21 1.76c-.2.31.42 1.24.21 1.45-.62.73-.21 1.46-.31 2.18 0 .1.21.21.31.42l.73-.42a9.11 9.11 0 011.76.83c.21.1.21.52.42 1.14-.52-.41-.63-.72-.83-.72-.83 0-2 .83-2 1.55s-.83.52-.93.94l1.14.52-.93.72.31 1.56c-1 .31-1.56.1-1.56-.73-.83 0-1.45 0-1-.83a4.18 4.18 0 011 .83h1c-1.24-.72-1.56-2.17-2.9-1.76l-.83 1-.83-1.45a3.26 3.26 0 01-2.29 1.87l.42.41-.32 1c.94-.21.73 1.14 1.66 1.14.06-.25.13-.49.21-.73a2.81 2.81 0 01.52-.62 5.56 5.56 0 012.8 2.28l.62-.31.52 1.66-.72.83c-.21.73.1 1.46-.32 2.18-.2.42.21 1.25.32 1.87-1.87.93-1.87.93 0 2.8v1.87l2 1.45a2.09 2.09 0 01.52-.41l.93-.31-1.24-1.35 1.35-1.56a.77.77 0 01.21-.42c.93-.93 1.76-1.76.83-3.21-.21-.31.1-.83.41-1.15a8.86 8.86 0 001-3.94 13.88 13.88 0 011-4.57 19.77 19.77 0 001.45-6.43c.1-2.08.83-4.05.52-6.23a2.1 2.1 0 01.31-.72 6.5 6.5 0 00.93-2.8c0-1.25.73-2.29.52-3.43s.42-2.28.42-3.42a1.67 1.67 0 01.62-1.56c.62-.42 0-.83-.1-1.25l.73-.72-.31-1.25v-4.77c0-.83 0-1.87.52-2.29.93-.62-.42-1.34.31-1.86a.7.7 0 000-.63 2.53 2.53 0 010-2.7 5.76 5.76 0 00.52-2.28c-1-.83-.21-1.66.1-2.28a5.69 5.69 0 001.14-3.32 6.13 6.13 0 011.66-4.15 10.57 10.57 0 01.31 3.63 7.26 7.26 0 00.31 2.07c-1.24 1.25-.73 3-.93 5.09l-1.35.93a17.33 17.33 0 01.87 1.6zm176.54 90.4a.55.55 0 01.41.21l-.1.1-.31-.31a1.53 1.53 0 00-.41-.31l.1-.1.31.42zM8.93 255.05a.55.55 0 01.2-.42l.1.1-.31.31a1.63 1.63 0 00-.31.42l-.1-.1.42-.31zm131.28-224.9a.91.91 0 01.52.83h-.31l-.21-.83.42-.1a1.55 1.55 0 01-.73-.21l.1-.1.31.41zm-16 78.87c.1-.1.1-.31.31-.41l.1.1-.41.31v.93a2.54 2.54 0 012.8.31l-3 .1 1.35-1.35c-1.46.73-1.77.42-2.39 0zm74.44 200.93c-.1 0-.2.1-.31.2l-.1-.1.42-.31.1.1c0-.31-.1-.62-.1-1l-1.46.63c-.1-.1-.31-.21-.2-.31.41-1.15.41-1.15-.42-2.39a16.27 16.27 0 012.08.41 1.19 1.19 0 011 1.33.42.42 0 01-.1.31 11.5 11.5 0 00-.94 1.15zm-173.53-82.3c-.42.83 1 1.45.1 2.59-.52.62.21 1.76-.42 2.6-.21.2-.1.72-.1 1-.1 1-.21 2.08-.31 3.22l.73.1-.73 1.45a15.5 15.5 0 01.73 2.91c.1.62-.42.93-.94 1-.31.1-.62.21-1 .31a.8.8 0 00-.42.41l-1.45-1c.62-1.25 2-2.08 2.28-3.64l-.73-.2c0-.1.1-.21.1-.32a26 26 0 00.32-3.94c.1-1-.42-2.08.31-3 0-.1.1-.1.1-.21a4.41 4.41 0 011.43-3.28zm-12.25 0a2.49 2.49 0 011.87.72l-1 2 .94 1.76a6.4 6.4 0 00-.42 1.35c0 .41 0 .93-.41 1.14.41.42-.94.73-.1 1.25l-.63.83c-.41-.94-.93.31-1.45-.1.21-.83.73-1.67-.21-2.5a2.13 2.13 0 01-.41-1.14 10.42 10.42 0 01.52-4.36c.1-.52.83-.93 1.34-1.45-.41-.1-.62-.41-.93-.73 1-.31 1 .21.93 1.25zm88.53-37.47l.31-.42.21.42c1.25 1.66 1.25 1.66 1.35 2.7-.31 0-.83-.1-1 .1-2.07 1.66-4.36.62-6.54.41-.72-.83-1.76-.41-2.59-.83a8.16 8.16 0 00-2.7-.1h-2.5a9.69 9.69 0 00-2.39.32 5.41 5.41 0 01-2.59.2 15.92 15.92 0 00-4.36 0c-1.14.1-2-.72-3.42-.62l-.52.52-.31-.1c-1.46-.52-2.91-1.14-4.36-1.56a4.44 4.44 0 00-2.8.42c-.83.31-1.66-.1-2.6.31a11.38 11.38 0 01-3.11.62 3 3 0 01-1.66-.21c-1.66-1-3.12-.62-4.67.1-.1.1-.21.1-.42.1h-.41l-.1-1 2.28-1.46c.41-.93-.1-1.66-1-2.38l1-1.25c-.42-.73-.42-.73.52-2.7 1.14 1.45 1.14 3.22 2 4.67.93.42 1.56-.21 2.18-.62a2.17 2.17 0 012.59-.21 8.5 8.5 0 003.22.62 13.9 13.9 0 013.63.52l.83-1.35 1 1.46 1.45-1.46.1.73c.42-.1.94-.21 1.15-.52a4.23 4.23 0 013.63-1.24h2.8c1-2.18 3-1.77 5.08-1.87l1.15 1.45a2 2 0 012.28.73c1-.1 1.87-.52 2.49-.21a8 8 0 003.53.41 3.38 3.38 0 012.18.83c.83.83 1.87 1.46 2.28 2.7.1-.2.62-.2.83-.2zm9.13 3.22c-.2 0-.51-.1-.72 0s-.52.41-.73.62l.94.41c-1.15.94-1.35 1-2 .32-.2-.21.1-.73-.1-.94a5.62 5.62 0 00-1.34-.73l1-.31v-3c-.2-.2-.31-.41-.52-.52-1.55-.93-1.66-2.7-2.49-3.94a.82.82 0 01.1-1 .84.84 0 01.42-.21c.41-.1.72-.83.93-1.34a4.44 4.44 0 00.1-1.15 7.51 7.51 0 00-1.76-2.28c-.83-.52-.94-1.56-2.08-2l-2.28-.31-.21.72-3-3v-1.55l-3.53-3.21c.31-.73.31-.73-.31-1.46l-.93.42-.83-1.66 1.86-1.35c-.31-1.14-1.55-1-2.28-1.77s-1.76-.62-2.7-.93c-.1.1-.21.31-.31.41l-.1-.1.42-.31.1.1c-.32-.62-.32-.72-.1-1.66-1.77-.31-1.77-.21-2.6.42a4.18 4.18 0 002.28 2.8l-1.14.62c.31 1.45-.31 2.8.52 3.94-.41.73-.1 1.77-.93 2.29a2 2 0 00-.94 2.07h-.83c-.1.1-.21.31-.31.42l-.1-.1.42-.31.1.1v-.83h-2.29l-2.59-2.6c-.31 1.35-2.08.63-2.29 2.08l-1.66-1.77-1.66 1.56.31 2.9a2 2 0 01-2.28-1.55v-.1c-.1-.83-.73-1.66 0-2.6l-.93-.41v-1.46c-.63-.93-1.77-1.45-2.08-2.59a1.66 1.66 0 00-2 1.14c-.73 1.35-2.08 2.39-2.7 3.95-.31.62-1 1.66-2.18.93l-1.77 1.24-.83.52c.1.1.32.21.42.31l-.1.1-.31-.41.1-.1c-1.56 1.45-1.66 1.66-.94 3.53l-1.24.21c-.21.62-.42 1.14-.73 2l-.62-1.25c-.93.1-1.45 1.46-2.49.94v.93l-.93-.52-1.66 1.14-.31-.94a1.19 1.19 0 00-.32.1c0 .94-1 1.25-1.45 1.87-1.56 1.56-1.35 3.32-1.24 5.19.72.52.2 1.24.31 1.87a6.2 6.2 0 01.41 1.86c-.1.63.83 1.15 0 1.67a3 3 0 01.42 2.28 6 6 0 00-.42 3v3a2.08 2.08 0 002.58-1.4v-.05a8.17 8.17 0 001-2.07c.1-.52-.31-1.15.1-1.67l.1-.2c.94-.52 1.35.2 1.66.52.83 0 1.77-.42 2.18 0 .83.83 1.25-.42 2-.21a8.78 8.78 0 002.29 0c.62 0 1.45-.42 1.76-.21.83.73 1.25-.62 2.08-.31a6.81 6.81 0 002.38-.21c.53.22 1.05.46 1.56.73s.52-.83 1-.1c.21.2.83.1 1.24.1 1.46 0 2.91.31 4.26-.83.21-.21.83 0 1.24.1a7.82 7.82 0 004 .62 6 6 0 001.45-.42c.73.21 1.35 1.15 2.29.42.21-.1.62.21.93.41a7.34 7.34 0 00.94.63l.51-1 .52.52c.83-.21 1.66-1 2.6-.1a.69.69 0 00.62.1c.73-.21 1.35-.62 2.08-.42.41-.93 1.35.63 1.76-.31 0-.1.52-.1.73 0a1.86 1.86 0 002.18-.1c1.86 1.66 3.73.63 5.5-.52.41.94.41.94 1.24.52l1 1.35 1-.52c.1-.1.21-.31.31-.41l.1.1-.42.31-.1-.1c.52 1.56 1.77.73 2.8 1.14l-.52-1.24a2 2 0 012.5.31 2.22 2.22 0 01.62 2.59l-.62.1c0 .1-.1.31 0 .31.72.42.62 1.35.93 1.87.62.73.1 1.14-.21 1.76a3 3 0 000 .94 9.3 9.3 0 01-1.66 5.19 7.89 7.89 0 00-.73 2.18c-.83.1-1 .31-2.9 1.86l-.62-.51c-.83.72-2.8.31-2.39 2.38.1.1.31.21.41.31l-.1.1-.31-.41.1-.1c-.31.1-.83.21-.93.41a8.13 8.13 0 00-.94 3.74c.1.1.32.21.42.31l-.1.1-.31-.41.1-.1a3.5 3.5 0 00-3.74.31c-.21.62 1 1.24 0 1.86-.1 0 0 .32-.1.42-.52.41-1.45 0-1.66.83a2 2 0 01-1 1.24l-1.96-2.62c.83-1-.72-2.08 0-3.22l-2.49-2.07.42-2.6-1.25-1.24.52-.63c-.72-1.66-2.59-2-3.42-3.32H82.4a14.1 14.1 0 01-1.24 2.49c-.21.31-.94.21-1.46.42l-2.18-2.28-.72-.1-.31-.73c-.94-.31-2 .21-2.8-.42l-1.25 1.67-1.14-.62v1.45l.94-.42.83 1.25c0 1.14-.94 1.56-1.56 2.18a7.68 7.68 0 01-2.6 1.35 1.83 1.83 0 001.15 2.07 1.44 1.44 0 01.2 1.14c-.72.63 0 1 .21 1.67l-.93.93v2.49c-1.46-.41-2 1.56-3.53.83-.21-.31-.31-1.45-1.25-.31a4 4 0 00-4.67-1c-.52-.41-1.76-.52-1.45-1.87a2.18 2.18 0 01-.94-2.28l-1.35-.83c.63-.93.52-2 1.56-2.59a19.33 19.33 0 002.08-2c-.63-2-2.29-2.39-3.95-3.12-1.14-.52-2.49-.52-3.42-1.66l.93-1.76a1.32 1.32 0 00-1.86-.11l-.21.21-.2-1.46.93-.41-.41-.42a1.2 1.2 0 01-.1-.62h-1.15c-1 2.18-.51 4.46-.62 6.75-1.35.1-1.24-1.15-1.76-1.77-.1-.1 0-.31 0-.41-.1-2.39-.21-4.78-.52-7.06a27.72 27.72 0 00-.73-4 8 8 0 010-2.18c0-.41.42-.93.21-1.24-.93-2.28-.1-4.78-.41-6.95a12.2 12.2 0 01-1.25-2.6 13.1 13.1 0 010-2.8c-1-.52-.83.42-1.14.83a5.86 5.86 0 00-4.15-.93c-.94 1.14.83 2.18.1 3.42-.52.31-1.35.62-1.25 1.77.1.83-.1 1.76.52 2.49-.72.93-.31 2-.52 3.11a3.49 3.49 0 01-.93-2c0-1.77.21-3.53-.83-5.09a1.35 1.35 0 010-.93c.21-1.35.21-1.45-.83-2.18-.21-.21-.42-.31-.52-.52a7 7 0 01.41-2.91c.42-.83-.41-2.07.52-3-.2-1.34.21-2.59-.31-3.94a27.5 27.5 0 01-.62-4c-.1-.72.31-1.14 1.14-1.35l.31.83c1.46 0 1.77-.2 1.77-1.24 0-.52.2-1-.31-1.45a.68.68 0 01-.1-.63c.1-.93.62-2 .31-2.7a5.46 5.46 0 01-.31-2.59c0-1.87.1-1.87-.52-3.12a8.54 8.54 0 00-.52-1.35c-.1-.2-.52-.41-.94-.72.42-.83-.62-1.66-.1-2.91.42-.83.1-2.07.1-3.11-1.24-.1-1-1.35-1.24-2s.21-1.46.31-2.08l-1.76-1.76a7.68 7.68 0 010-1.66c.1-.32.51-.63 0-1a1.31 1.31 0 00.41-1.46 6.75 6.75 0 00-.41-1.14v-1.45l-1.35-1v-2.39c-.42-.1-.94.21-.94-.52 0-.21.21-.31.42-.41.72-.1.52.52.52.93.72.62 1.66.42 2.7.42v-2.6l1.24-.1a9.56 9.56 0 01.62-1.56c.32-.41.63-1.14 1.46-.41.21.21.93-.21 1.66-.42v-.72a2.8 2.8 0 01.41-.83l-1.25-.42c0-.21-.1-.52 0-.62.72-.73.52-1.25-.1-1.87s-.52-1.35.31-1.87l2.28 1.14 7.06-2.28.1-1h2.18l.1 1.25h1.17l.42-.94c.2.1.51.1.62.31a14.58 14.58 0 011 1.56l-.63 1.14 2.39 2.08a3.25 3.25 0 011-.42c.41 0 .93.42 1 .21.41-.52.62.1.83.1s.62-.1.93-.21c.1-1.14 1.66-2.07.93-3.73h1.67a2.52 2.52 0 011.45-1.77l2.07.73.83.21c.1-.31.32-.52.42-.83a3.13 3.13 0 011-.52l-.62-1.66c2.18-2 2.28-4.36 1.35-7.06h1.66c.31-1.45.21-3.11.93-4.15.94-1.35 0-3 1-4.15a1.22 1.22 0 00-1.45-1H71.24l-.41 1-.62-.52-.83.52c-.52-.31-1-.83-1.56-.83-1-.1-1.56-1.66-3-.72 0-1.35-.1-2.5-1.35-3-1.14.51-2.18.83-3.43-.21a6.51 6.51 0 00-3.11-1c-.31-.1-.83.41-1.24.62v.94a.56.56 0 01-.42.2c-.73-.1-1.56.32-2.08-.41-.1-.1-.51.21-.72.21s-.73.21-.83.1c-.73-.73-1.45-.1-2.18 0a7.33 7.33 0 01-1.66.41c-.52 0-1.25-.52-1.56-.31-1.24.62-2.59.42-3.94.42a6.7 6.7 0 01-2.8-.52 5.88 5.88 0 01-1.66-1.56 6.17 6.17 0 01-.73-1.45h-.83c-.83-1.35-.83-1.35-2.18-1.87 0 .93.94 1.76.21 2.8l-.62-.62c-.63-.83-1.25-1.66-1.87-2.39-.21-.21-.52-.21-.94-.42.21-1.24-.31-2.59.52-3.94l-.93-1.87c1.35-1-.1-2.18.1-3.42l.73-.31a.69.69 0 00.1-.42c-.1-.83.2-1.76-.42-2.59-.21-.21.42-1.15.31-1.25-.72-.72.52-1 .21-1.76a1.46 1.46 0 01.41-1.87c.1 0-.2-.62-.41-.93-.52-.63.73-1 .1-1.77a1.74 1.74 0 01.21-1.87c.1-.2-.21-.72-.42-1.35l.63-.62a2.57 2.57 0 00.93-2.39 1.39 1.39 0 01.21-.62c.1-.83.83.83 1-.31 0-.41.51-.73.72-1.14-.41-.94-.21-1.56 1-2.18.21-1.66-.52-3.74 1.35-5-.21-.63-.73-1-.1-1.77a14.12 14.12 0 001.66-4l.62.51c0-.41.1-.62.1-.93 0-.52-.21-1.14.73-1 0-.93 1.14-1.24 1.14-2.28 0-.73.83-1.35 1.25-2a16.48 16.48 0 011.34-1.66h1.88l.62-1.66c.1-.1.1-.1.21-.1a4.81 4.81 0 003.32-.93c1-.73 2.39-.83 3.32-1.87.73.72 1.56.52 2.49.31l1-.31a5.43 5.43 0 012.91-.1 2.75 2.75 0 003.53-1.35 2.27 2.27 0 012.49-.73c1 .41 2.39 0 3.11 1.24.21.32.73.32 1.14.52 1.15-.1 1.35-1.35 2.29-2l.72 1a12.41 12.41 0 012.08-.52c.62 0 1.24-.73 1.87 0 1.14-.31.72 1.14 1.66 1.25l1.35-.73c1.35.62 2.28 2.08 4.15 2.18l.31-.73c.1 0 .21-.1.31-.21.73-.41 1.14.94 2 .21.42-.41 1.46-.1 2.18-.21a3.58 3.58 0 002.08-.41 2.54 2.54 0 011.76 0 2.67 2.67 0 002.18 0c.83-.31 1.35.31 1.87.93a1.13 1.13 0 011.87 0 2.22 2.22 0 002.28-.1l.31.94c1.66-.21 3.32.41 5-.52l1.14 1 .73-.52a7.79 7.79 0 002 1.24c.42.21.63.31.63.73h1.34l.94.72.83-.51.62.93a2.89 2.89 0 002.8 2.28c.21 0 .42-.21.73-.41.52.52 1 1.35 2.18.52.83-.63 1.66.52 2.59.93l-.52.62c.31.21.63.63.83.63.73-.1 1 .41 1.56.83a13 13 0 005.4 2.59v2.02a5.19 5.19 0 002.8 1.87c.31 0 1 0 1 .93 0 .31.72.62 1.24 1a5.59 5.59 0 00-.41 1.45 5 5 0 00.52 1.35 2.85 2.85 0 01.31 1.25v3.63l1.24 1.24a1.76 1.76 0 00-.31.94 4.09 4.09 0 00.42.93 2.47 2.47 0 01.42.72 9.5 9.5 0 01.2 1.77 3.06 3.06 0 01-.1.51 3.61 3.61 0 01.73 3.22 2.13 2.13 0 00.1.83 15.53 15.53 0 01.73 2v2.29l.31 3.53-.73-.52.62 2.18-.93.31c-.31 1 .1 2.18-.31 3.42l.93 2.08-1.14.93.21.21c.62 1.56.1 3.22.31 4.88.1.52-.31.93-.41 1.45s-1 .83-.32 1.56c.32.31-.51.83.21 1.14.1.1 0 .73 0 1a.94.94 0 01.42.83h-.31l-.21-.94h-.73l.52 1.25a4.59 4.59 0 00-.83.1c-.52-1.25-1.56-1.35-2.7-1.25l-1.56-2.28-.83 1.46a6.62 6.62 0 00-4.36-1.77 1.89 1.89 0 01-2-1.24c-1.14.1-1.66-.83-2.28-1.45-1.46-.21-2.8.31-4.15-.31l-.73 2-.93-1.46c-.73.21-1.35.83-1.66.63-.73-.42-1.25-.1-2 0-2 .21-3.94.31-5.91.52a1.74 1.74 0 00-1.25.31c-.62.62-.83-.31-1.66-.21l-.21.93h-2.28c-2.28-.31-4.36.73-6.64.42l-.21.83c-.83 0-1.66.41-2.39-.31a5.69 5.69 0 01-2.28 1.45 2.34 2.34 0 00-1.28 2.39v2.28l1.15 1 .83-.52.41 1.14h3.84a4.1 4.1 0 01.52.94c.21.62 1.24.83.93 1.66a7.87 7.87 0 01-1.24 2.9c-1 .94-.94 2.39-1.87 3.43-.31.31.1.93.83 1.66l1.14-.62c.73.93-.31 1.14-.62 1.76l1.56 1c.72-.1 1.86.41 3-.42.2-.21.93-.21 1 0 .42.73 1.15.21 1.67.63s.93-.32 1.55-.21a5.87 5.87 0 001.87 0c2.91-.21 3.22 0 5.29 1.87.52.2.83-.94 1.56-.21a1.76 1.76 0 001.25.21c1-.32 1.76.93 2.7.31s1.76-.1 2.7-.42l.2-.72c1.25-.21 2.49-.42 3.74-.52.31 0 .62.52 1 .83l.83-.83 2.7 2c.41-.73.83-1.35 1.45-1.45a6.24 6.24 0 012 .2c-.1-.41-.41-1-.31-1.35 1-1.55 0-2.38-.93-3.42 1-.93.21-1.87-.1-2.91l3-.62 2.49 1.25-.73.72c-.21.62 1.35.73.42 1.45a1.39 1.39 0 001.66.73c.52-.21.93-.83 1.45-1.35.73.21 1.66 1 2.7-.21.52 1.35.94 2.7 1.35 4.15.21.94.21 2 .42 3a43.35 43.35 0 01.51 6.44 8.3 8.3 0 00.42 3.53 3.46 3.46 0 01-.42 3c.94.93.21 2 .42 3-.83 1.24-.42 2.59-.42 3.94a11.34 11.34 0 01-.93 5.3 1.48 1.48 0 000 .93 1.94 1.94 0 01-1 2c1.46.83.83 2.08 1 3.22l-.93.93a18.28 18.28 0 01-.66 5.37c-.31 1.66-.93 3.42-.62 5.18-.31.21-.94.42-.94.52 0 .83-.2 1.46-1.24 1.56-.52.1-1.14.52-1.66 0a.32.32 0 00-.21.1l.31 2-.73-.62c-.31.73-1 1.35-.2 2.28.1.1 0 .31 0 .42.1.83-.63 1.45-.1 2.38.41.63.1 1.67.1 2.5-1.46.72-1.46.72-.94 1.86l-1.14.94-1.57-.31c.52 2 .42 2-.52 4.15-.21.52-.41 1-.62 1.66-1.56.31-2.28 1.76-2.91 3.11a4.2 4.2 0 01-.93 1.66 3.26 3.26 0 00-.62 1.35 2.35 2.35 0 01-1.77 2h-.52c-.93-.1-1.35.1-1.35.83s.21 1.34.32 2a1.23 1.23 0 01-1.56.62c-.21-.1-.31-.31-.52-.31a2.93 2.93 0 00-.93.21c.31-.94-.94-.52-1-1.35-.1-1.25-1.14-2.08-1.66-3.11h-.47l-.31 2c-1.66-.83-1.76-2.6-2.59-3.74l-1.35-.41v-.48l.93-.32-.62-1.14a3.21 3.21 0 01-2.18.42v1l1.24-.52h.1c-.31 1 .94 1.45 1 2.28a.67.67 0 01-.5.82c-.41.21-.62.83-.83 1.35-.1.1.21.41.42.73l-.94.93 1.15.52 1.14-.42v.52c-.52.83-.94 1.56-1.46 2.29zm-57.5-3.64l.1 1.46 1.15 1.14c-.52.1-.73.21-.94.1s-.31-.31-.41-.31l-1.46 1.76-1.45-.62c-.93-1.76 1-2.08 1.66-3.11.1-.21.42-.31.73-.42zm-11.2 6.54c-.73-2.49.62-4.05 2-5.81.1.42 0 .73.1.83.41.62-1.14.93-.31 1.56s-.42.72-.21 1.24c.42 1.25-.52 1.66-1.55 2.18zm79.5-82c-.21.31-.52.52-.63.83s-.1.52-.21.83a6.92 6.92 0 00-1.34-.41 3.11 3.11 0 00-1.15.41v-1.14l1.66-1.66zM24.39 247.36v1.15l1.25.2-1 .63.62.83-1.35.72v-1.34c-.1-.32-.41-.63-.52-.94s-.31-.83-.52-1.35zm-14.53-2.59c2.08 1.66 2.08 1.66 1.14 2.9l-1.14-.51zm41.41-45.87l-1.66-.21a7.66 7.66 0 00.93-1.25 8.48 8.48 0 01.52-.93l.52.62a8.29 8.29 0 00-.31.83v.94zm-27.3-44.32v-4.88a3.82 3.82 0 01.42 2.39v2.49zm170.68 151.53c.1.2.2.31.31.51s.52.42.72.63c-1 .62-1.66.21-2.18-.83zM166 67.11l-1.35.83-.72-.72.83-.32-.42-1a1.23 1.23 0 00.42-.1 15.74 15.74 0 001.19 1.29zM10.48 244.35c-.2-1.45-.2-1.45.83-2.07.11.83.11.83-.83 2.07zm13-87.17l.72-.73a28.78 28.78 0 01.21 4.15c-.95-1.35.08-2.7-.95-3.42zm83.64-150h-1.47l-.1-1.45c.62.52.93.96 1.55 1.52zm-82.4 246.38H24v-1.31c1.22 0 .7.82.7 1.34zM156.4 52.05c.42.51 1.14.72 1 2.07l-1.45-1.66zm-45.56 62.68l-.93-1.87.93-.31zm28.23-11.42l-1 .21c0-.21-.1-.52-.1-.72s.1-.42.1-.83zM9.65 253.8c-1-1.14-1-1.14 0-1.56zm17.44-32.17v-1.25l.83.1-.42 1.25zM14.65 83.59l-.93-1.76c.93.42.93.42.93 1.76zm34.25 30.72l-1-1.45 1-.21zm-12.55 51.17v-1.66h.3l.1 1.66zM9.86 240.25c-.21-.31-.41-.52-.52-.72s.21-.31.31-.42a1.3 1.3 0 01.52.52 2.77 2.77 0 01-.31.62zm3.43-17.74a2 2 0 01-.32-.83c0-.1.42-.42.42-.32a1 1 0 01.41.52c0 .06-.15.27-.51.58zm72.54 10.48c.31.31.52.52.52.62a1 1 0 01-.42.52s-.41-.21-.41-.31a1 1 0 01.31-.88zm-21.48-55.68l-.7-1.56.73-.1zm-44.11 78.88c-.83.41-.93.1-.93-.94zm5.4-10.8v1.46h-.21v-1.35zm3 24.49l1-.51c.15.62.15.62-.99.51zm72.13-91.33l1.14.52c-1.34.1-1.34.1-1.13-.52zm1.87 2.5c-.73.2-.83-.1-.52-1zm-35-3.53c-.72-.1-1-.1-1.14-.31a2 2 0 01-.1-.94zm-50.86-16.61l.63.94c-.6.1-1.11.31-.6-.94zm102.47-53.45l.31-.31c.21-.1.41-.1.62-.21a.78.78 0 01-.21.63c-.2.21-.41 0-.62 0s0-.11-.1-.11zm-94.13 52.62v.94h-.21v-.94zm165.84 76.8h.69v.21l-.73.21zm-103.78-6.43v.72h-.21l-.21-.72zm-12.35-54.8v.93h-.18v-.93zm-2.7 1.76v.93h-.21v-.93zm-45.48 45.56v-.72h.21l.21.72zm-17 26.47h-.72v-.19l.72-.21zM22.94 251v.72h-.21l-.21-.72zm73.16 41v-.93h.21v.93zm98.8 10.07v.83h-.2v-.94zM104.1 15.62v.74h-.21l-.2-.73zM54.8 184.69h-.72v-.21l.72-.21zm-38.71 3.84v.72h-.21l-.21-.72zM140.65 81.31l-.21.31a.41.41 0 01-.1-.21c0-.1.1-.21.1-.31zM14.76 91.07l-.21.2a.38.38 0 01-.1-.31.32.32 0 00.1-.21zm16.92-.1a.46.46 0 01-.32.1l-.1-.1a.38.38 0 01.32-.1c-.11 0 0 .09.1.09zm-17.46 13.18l-.21.31a.41.41 0 01-.1-.21c0-.1.1-.21.1-.31zm-9.13 153.8l-.1.31c-.1-.1-.21-.1-.1-.1s.1-.21.1-.31zm164.18-147.58l-.31-.21.1-.1c.1 0 .21.1.31.1zm-29.68-81.68l-.31-.21a.1.1 0 00.1-.1c.1 0 .21.1.31.1zm56.67 279.18l-.1.21a.37.37 0 01-.1-.31l.1-.1zm-83.45-110.95l-.2.21a.36.36 0 01-.1-.31l.1-.1zm83.45 108.46l-.1.31a.1.1 0 01-.1-.1c0-.1.1-.21.1-.31zm5.5-.83l-.21.21a.37.37 0 01-.1-.31l.1-.1zm-60-272.54l.31.21-.1.1c-.1 0-.21-.1-.31-.1zm12.66 13.49l.21-.31a.11.11 0 01.1.1c0 .1-.1.21-.1.31zm-22.62 6.44l-.31-.21.1-.1c.1 0 .2.1.31.1zm33.21 17.44l-.21-.21a.36.36 0 01.31-.1l.1.1zm-134.82 204l-.1.31-.1-.1c0-.1.1-.2.1-.31zm41.46-58.6l-.31-.1a.35.35 0 01.21-.1c.1 0 .21.1.31.1zm-55.56 15.77l-.21.31a.11.11 0 00-.1-.1c0-.1.1-.21.1-.31zm4.25-2.7l.21-.21a.37.37 0 01.1.31l-.1.1zm49.2-51.6l.2-.1a.36.36 0 01.1.31l-.1.1zm-43.89 50.36l-.21.1a.38.38 0 01-.1-.32l.1-.1zm42-48.05a.45.45 0 01-.31.1l-.1-.1a.35.35 0 01.31-.1zm-49.8 28.22l-.1.32a.09.09 0 00-.1-.1c0-.1.1-.21.1-.32zm85.8-94.43l-.21.31-.1-.1c0-.1.1-.21.1-.31zm-78 135.22l-.21.21a.36.36 0 01-.1-.31l.1-.1zm4.46-107.41l.21.2a.36.36 0 01-.31.1l-.1-.1zm142.19 8.51l-.1-.21a.35.35 0 01.31-.1l.1.1zm-161.08 96.2l.1-.31.1.1c0 .1-.1.21-.1.31zm5.71-85.31l-.31-.2a.09.09 0 01.1-.1c.1 0 .21.1.31.1zm33.62 52.1a.37.37 0 01.1.31l-.1.1a.42.42 0 01-.1-.31c0 .11.1 0 .1-.1zM11.74 240l.31.1a.09.09 0 00-.1.1c-.1 0-.21-.1-.31-.1zm.62-1l-.31-.21.1-.1c.1 0 .21.1.31.1z" fill="#b4b4b5"/>
</svg>