<svg id="Layer_2" data-name="Layer 2" xmlns="http://www.w3.org/2000/svg" viewBox="0 0 147.45 104.96"><defs><style>.cls-1,.cls-2,.cls-3{fill:none;}.cls-1,.cls-2,.cls-3,.cls-4{stroke:#000;stroke-width:3px;}.cls-1{stroke-miterlimit:10;}.cls-2{stroke-linecap:round;}</style></defs><title>dish</title><ellipse class="cls-1" cx="70.58" cy="52.48" rx="50.35" ry="50.98"/><ellipse class="cls-1" cx="70.58" cy="52.48" rx="33.66" ry="34.09"/><g id="layer1"><path id="path18114" class="cls-2" d="M108.45,311.11v23.61" transform="translate(-95.02 -301.62)"/><path id="path18120" class="cls-3" d="M102.49,350.06v23.67" transform="translate(-95.02 -301.62)"/><path id="path18122" class="cls-2" d="M102.49,311v23.62" transform="translate(-95.02 -301.62)"/><path id="path18124" class="cls-2" d="M96.52,311.11v23.61" transform="translate(-95.02 -301.62)"/></g><rect class="cls-2" x="1.5" y="33.96" width="11.93" height="13.16"/><rect class="cls-4" x="4.48" y="64.06" width="5.96" height="39.4"/><path d="M240.77,309.28a3,3,0,0,0-3.08.47c-.68.58-16.58,14.72-16.58,50.9a2.76,2.76,0,0,0,2.76,2.79h12.89v37a2.86,2.86,0,0,0,5.71,0v-88.6A2.7,2.7,0,0,0,240.77,309.28Zm-4,48.75h-9.9c.38-19.3,5.78-31.49,9.9-38.06Z" transform="translate(-95.02 -301.62)"/><rect x="141.74" y="59.66" width="5.71" height="43.8"/></svg>