<svg id="Layer_2" data-name="Layer 2" xmlns="http://www.w3.org/2000/svg" viewBox="0 0 120.18 113.45"><defs><style>.cls-1,.cls-3{fill:none;}.cls-1,.cls-2,.cls-3{stroke:#000;stroke-miterlimit:10;stroke-width:3px;}.cls-2{fill:#fff;}.cls-3{stroke-linecap:round;}</style></defs><title>events</title><rect class="cls-1" x="25.96" y="20.82" width="79.25" height="80.55"/><rect class="cls-1" x="36.23" y="49.68" width="12.76" height="11.26"/><rect class="cls-1" x="58.94" y="49.68" width="12.76" height="11.26"/><rect class="cls-1" x="58.94" y="71.91" width="12.76" height="11.26"/><rect class="cls-1" x="35.93" y="71.91" width="12.76" height="11.26"/><rect class="cls-1" x="81.07" y="71.91" width="12.76" height="11.26"/><rect class="cls-1" x="81.07" y="49.68" width="12.76" height="11.26"/><rect class="cls-1" x="37.25" y="12.71" width="10.39" height="10.1"/><rect class="cls-1" x="60.13" y="12.68" width="10.39" height="10.1"/><rect class="cls-1" x="83.14" y="12.68" width="10.39" height="10.1"/><circle class="cls-2" cx="100.91" cy="94.19" r="17.77"/><line class="cls-1" x1="100.91" y1="94.19" x2="96.69" y2="79.29"/><line class="cls-3" x1="1.5" y1="8.66" x2="15.21" y2="23.35"/><line class="cls-3" x1="28.92" y1="8.66" x2="15.21" y2="23.35"/><line class="cls-1" x1="1.5" y1="8.66" x2="28.92" y2="8.66"/><line class="cls-1" x1="15.21" y1="23.35" x2="15.21" y2="38.03"/><line class="cls-3" x1="21.09" y1="38.03" x2="9.33" y2="38.03"/><line class="cls-1" x1="5.5" y1="0.93" x2="16.19" y2="14.53"/></svg>